<?xml version="1.0" encoding="utf-8"?>
<!-- Generator: Adobe Illustrator 16.0.0, SVG Export Plug-In . SVG Version: 6.00 Build 0)  -->
<!DOCTYPE svg PUBLIC "-//W3C//DTD SVG 1.1//EN" "http://www.w3.org/Graphics/SVG/1.1/DTD/svg11.dtd">
<svg version="1.1" id="Layer_1" xmlns="http://www.w3.org/2000/svg" xmlns:xlink="http://www.w3.org/1999/xlink" x="0px" y="0px"
	 width="25.375px" height="24px" viewBox="-0.688 0 25.375 24" enable-background="new -0.688 0 25.375 24" xml:space="preserve">
<g>
	<path fill="#4E1F60" d="M20.25,3.375H9.75c0,0-1.422-2.25-2.25-2.25H3.75c-0.828,0-1.5,0.671-1.5,1.5v17.25
		c0,0.828,0.672,1.5,1.5,1.5h16.5c0.828,0,1.5-0.672,1.5-1.5v-15C21.75,4.047,21.078,3.375,20.25,3.375z"/>
	<path fill="#E4E7E7" d="M2.25,5.625h19.5v6H2.25V5.625z"/>
	<path fill="#4E1F60" d="M1.5,7.125h21c0.828,0,1.5,0.671,1.5,1.5l-1.5,12.75c0,0.828-0.672,1.5-1.5,1.5H3
		c-0.828,0-1.5-0.672-1.5-1.5L0,8.625C0,7.796,0.672,7.125,1.5,7.125z"/>
	<path fill="#E4E7E7" d="M16.351,14.322l-3.716-3.75c-0.349-0.579-0.92-0.579-1.269,0l-3.717,3.75
		C7.3,14.9,7.585,15.375,8.283,15.375H10.5v3c0,0.828,0.672,1.5,1.5,1.5s1.5-0.672,1.5-1.5v-3h2.217
		C16.414,15.375,16.699,14.9,16.351,14.322z"/>
</g>
</svg>
