<?xml version="1.0" encoding="utf-8"?>
<!-- Generator: Adobe Illustrator 16.0.0, SVG Export Plug-In . SVG Version: 6.00 Build 0)  -->
<!DOCTYPE svg PUBLIC "-//W3C//DTD SVG 1.1//EN" "http://www.w3.org/Graphics/SVG/1.1/DTD/svg11.dtd">
<svg version="1.1" id="Calque_1" xmlns="http://www.w3.org/2000/svg" xmlns:xlink="http://www.w3.org/1999/xlink" x="0px" y="0px"
	 width="24px" height="24px" viewBox="0 0 24 24" enable-background="new 0 0 24 24" xml:space="preserve">
<g>
	<path fill="#1081E0" d="M16.229,10.772c-0.137,0-0.271-0.074-0.342-0.201c-1.082-1.976-3.144-3.365-5.381-3.625
		c-0.212-0.025-0.364-0.218-0.341-0.43c0.025-0.212,0.218-0.366,0.431-0.341c2.481,0.288,4.77,1.83,5.972,4.022
		c0.104,0.188,0.037,0.422-0.153,0.526C16.355,10.757,16.291,10.772,16.229,10.772L16.229,10.772z M16.229,10.772"/>
	<path fill="#A485BE" d="M0.813,23.211l1.567-4.7c-0.794-1.336-1.253-2.898-1.253-4.565c0-4.947,4.01-8.954,8.955-8.954
		c4.944,0,8.953,4.007,8.953,8.954c0,4.944-4.009,8.953-8.953,8.953c-1.505,0-2.92-0.373-4.167-1.029L0.813,23.211z M0.813,23.211"
		/>
	<path fill="#47363D" d="M10.081,4.992c4.944,0,8.953,4.007,8.953,8.954c0,1.308-0.284,2.553-0.789,3.672l5.053,1.33l-1.565-4.701
		c0.793-1.336,1.251-2.898,1.251-4.566c0.002-4.944-4.007-8.954-8.951-8.954c-3.656,0-6.796,2.191-8.187,5.328
		C7.104,5.377,8.547,4.992,10.081,4.992L10.081,4.992z M10.081,4.992"/>
</g>
</svg>
