<?xml version="1.0" encoding="utf-8"?>
<!-- Generator: Adobe Illustrator 16.0.0, SVG Export Plug-In . SVG Version: 6.00 Build 0)  -->
<!DOCTYPE svg PUBLIC "-//W3C//DTD SVG 1.1//EN" "http://www.w3.org/Graphics/SVG/1.1/DTD/svg11.dtd">
<svg version="1.1" id="Capa_1" xmlns="http://www.w3.org/2000/svg" xmlns:xlink="http://www.w3.org/1999/xlink" x="0px" y="0px"
	 width="27px" height="27px" viewBox="11.167 11.334 27 27" enable-background="new 11.167 11.334 27 27" xml:space="preserve">
<g>
	<path fill="#4E1F60" d="M33.525,12.5h-17.05c-2.188,0-3.975,1.786-3.975,3.975v17.049c0,2.189,1.787,3.976,3.975,3.976h17.05
		c2.188,0,3.975-1.786,3.975-3.976V16.475C37.5,14.286,35.714,12.5,33.525,12.5z M28.527,16.789
		c-0.875,0.247-1.514,1.039-1.514,1.984c0,0.948,0.638,1.741,1.514,1.985v4.333c-0.875,0.245-1.514,1.041-1.514,1.986
		c0,0.944,0.638,1.741,1.514,1.987v0.172c-0.875,0.25-1.514,1.047-1.514,1.994c0,0.945,0.638,1.74,1.514,1.984v2.012h-7.049v-2.012
		c0.866-0.244,1.503-1.041,1.503-1.984c0-0.946-0.637-1.746-1.503-1.994v-0.172c0.866-0.246,1.503-1.043,1.503-1.987
		c0-0.945-0.637-1.741-1.503-1.986V24.91c0.866-0.246,1.503-1.039,1.503-1.984c0-0.948-0.637-1.741-1.503-1.986v-6.166h7.049V16.789
		z M14.775,33.524V16.475c0-0.94,0.76-1.701,1.7-1.701h3.867v6.165c-0.869,0.246-1.512,1.039-1.512,1.985
		c0,0.947,0.642,1.74,1.512,1.984v0.181c-0.869,0.246-1.512,1.041-1.512,1.985c0,0.943,0.642,1.742,1.512,1.989v0.172
		c-0.869,0.248-1.512,1.047-1.512,1.992c0,0.943,0.642,1.741,1.512,1.986v2.01h-3.867C15.535,35.225,14.775,34.461,14.775,33.524z
		 M35.225,33.524c0,0.937-0.764,1.7-1.699,1.7h-3.868v-2.01c0.872-0.246,1.507-1.043,1.507-1.986c0-0.945-0.635-1.744-1.507-1.992
		v-0.172c0.872-0.247,1.507-1.045,1.507-1.989s-0.635-1.739-1.507-1.985v-4.332c0.872-0.244,1.507-1.037,1.507-1.985
		c0-0.945-0.635-1.737-1.507-1.984v-2.014h3.868c0.936,0,1.699,0.761,1.699,1.701V33.524z"/>
</g>
</svg>
