<?xml version="1.0" encoding="utf-8"?>
<!-- Generator: Adobe Illustrator 16.0.0, SVG Export Plug-In . SVG Version: 6.00 Build 0)  -->
<!DOCTYPE svg PUBLIC "-//W3C//DTD SVG 1.1//EN" "http://www.w3.org/Graphics/SVG/1.1/DTD/svg11.dtd">
<svg version="1.1" id="Capa_1" xmlns="http://www.w3.org/2000/svg" xmlns:xlink="http://www.w3.org/1999/xlink" x="0px" y="0px"
	 width="31.25px" height="27.75px" viewBox="-3.5 -1.583 31.25 27.75" enable-background="new -3.5 -1.583 31.25 27.75"
	 xml:space="preserve">
<path fill="#4E1F60" d="M-1.184,6.004H3.82c0.414,0,0.75-0.337,0.75-0.751V0.25c0-0.414-0.336-0.75-0.75-0.75h-5.004
	c-0.414,0-0.75,0.336-0.75,0.75v5.003C-1.935,5.667-1.598,6.004-1.184,6.004z M-0.434,1.001h3.502v3.502h-3.502V1.001z M3.82,17.997
	h-5.004c-0.414,0-0.75,0.334-0.75,0.748v5.006c0,0.412,0.337,0.749,0.75,0.749H3.82c0.414,0,0.75-0.337,0.75-0.749v-5.006
	C4.57,18.331,4.233,17.997,3.82,17.997z M3.069,23.001h-3.502v-3.505h3.502V23.001z M6.347,1.134c0-0.414,0.335-0.75,0.75-0.75
	h18.087c0.415,0,0.751,0.337,0.751,0.75c0,0.415-0.336,0.75-0.751,0.75H7.096C6.682,1.885,6.347,1.549,6.347,1.134z M6.347,4.105
	c0-0.415,0.335-0.75,0.75-0.75h11.257c0.414,0,0.752,0.336,0.752,0.75s-0.338,0.75-0.752,0.75H7.096
	C6.682,4.856,6.347,4.52,6.347,4.105z M6.347,10.514c0-0.415,0.335-0.75,0.75-0.75h14.486c0.414,0,0.749,0.335,0.749,0.75
	c0,0.414-0.335,0.751-0.749,0.751H7.096C6.682,11.265,6.347,10.928,6.347,10.514z M6.347,13.486c0-0.415,0.335-0.752,0.75-0.752
	h11.257c0.414,0,0.752,0.337,0.752,0.752s-0.338,0.751-0.752,0.751H7.096C6.682,14.237,6.347,13.901,6.347,13.486z M6.347,19.762
	c0-0.414,0.335-0.75,0.75-0.75h14.486c0.414,0,0.749,0.336,0.749,0.75s-0.335,0.752-0.749,0.752H7.096
	C6.682,20.514,6.347,20.176,6.347,19.762z M25.935,22.735c0,0.413-0.336,0.749-0.751,0.749H7.096c-0.415,0-0.75-0.336-0.75-0.749
	c0-0.415,0.335-0.752,0.75-0.752h18.087C25.599,21.983,25.935,22.32,25.935,22.735z M5.885,6.557
	C5.535,6.334,5.071,6.436,4.849,6.786l-1.25,1.961h-4.782c-0.414,0-0.75,0.336-0.75,0.751V14.5c0,0.417,0.337,0.752,0.75,0.752H3.82
	c0.414,0,0.75-0.335,0.75-0.752v-4.484l1.545-2.423C6.337,7.243,6.234,6.779,5.885,6.557z M2.642,10.248l-1.369,2.15l-1.465-2.105
	c-0.012-0.016-0.026-0.029-0.04-0.045H2.642z M-0.434,12.577l0.818,1.175h-0.818V12.577z M3.069,13.752H2.19l0.879-1.381V13.752z"/>
</svg>
